# xmcd CD database file
#
# Track frame offsets:
#	150
#	13086
#	32614
#	43195
#	54476
#	67466
#	79635
#	93041
#	105070
#	114948
#	129888
#	143262
#	158687
#	173311
#	192719
#	202489
#	221598
#	235181
#	250201
#	267816
#
# Disc length: 3702 seconds
#
# Revision: 1
# Processed by: cddbd v1.5.2PL0 Copyright (c) Steve Scherf et al.
# Submitted via: CDex 1.70beta2
#
DISCID=070e7414
DTITLE=Various Artist - Best Jazz 100 (Disc1)
DYEAR=2006
DGENRE=Jazz
TTITLE0=I Left My Heart In San Francisco - Julie London
TTITLE1=Something Cool - June Christy
TTITLE2=My Funny Valentine - Chet Baker
TTITLE3=Misty Blue - Ella Fitzgerald
TTITLE4=Darn That Dream - Nancy Wilson
TTITLE5=Autumn In New York - Jo Stafford
TTITLE6=April In Paris - Dinah Shore
TTITLE7=Two Cigarettes In The Dark - Abbey Lincoln
TTITLE8=My One And Only Love - Anna Maria Alberghetti
TTITLE9=Bewitched - Mel Torme
TTITLE10=Crazy - Kay Starr
TTITLE11=It Had To Be You - Dinah Shore
TTITLE12=Angel Eyes - Jack Jones
TTITLE13=The Man I Love - Carmen Mcrae
TTITLE14=It Don’t Mean A Thing - Annie Ross
TTITLE15=Here’s That Rainy Day - Sue Raney
TTITLE16=Stars Fell On Alabama - Jack Teagarden
TTITLE17=I Should Care - June Hutton
TTITLE18=Garota De Ipanema - Eliane Elias
TTITLE19=Blue Moon - Billie Holiday
EXTD=YEAR: 2006
EXTT0=
EXTT1=
EXTT2=
EXTT3=
EXTT4=
EXTT5=
EXTT6=
EXTT7=
EXTT8=
EXTT9=
EXTT10=
EXTT11=
EXTT12=
EXTT13=
EXTT14=
EXTT15=
EXTT16=
EXTT17=
EXTT18=
EXTT19=
PLAYORDER=
